<?xml version="1.0" encoding="utf-8"?>
<!-- Generator: Adobe Illustrator 27.5.0, SVG Export Plug-In . SVG Version: 6.00 Build 0)  -->
<svg version="1.1" xmlns="http://www.w3.org/2000/svg" xmlns:xlink="http://www.w3.org/1999/xlink" x="0px" y="0px"
	 viewBox="0 0 800 800" style="enable-background:new 0 0 800 800;" xml:space="preserve">
<g id="Background">
	<rect style="fill:#D9DDDD;" width="800" height="800"/>
</g>
<g id="Objects">
	<g>
		<path style="fill:#C7C7C7;" d="M771.018,658.624c0,4.391-3.56,7.95-7.95,7.95H513.33c-4.391,0-7.949-3.56-7.949-7.95V247.252
			c0-4.39,3.559-7.949,7.949-7.949h249.737c4.391,0,7.95,3.559,7.95,7.949V658.624z"/>
		<path style="fill:#6B6868;" d="M771.018,658.624c0,4.391-3.56,7.95-7.95,7.95H513.33c-4.391,0-7.949-3.56-7.949-7.95V247.252
			c0-4.39,3.559-7.949,7.949-7.949h249.737c4.391,0,7.95,3.559,7.95,7.949V658.624z"/>
		<path style="fill:#FFFFFF;" d="M505.916,292.753V658.13c0,4.372,3.545,7.918,7.917,7.918h248.731c4.372,0,7.917-3.546,7.917-7.918
			V292.753H505.916z"/>
		<g>
			<path style="fill:#F1F1F1;" d="M523.197,248.458c0,1.035-0.838,1.874-1.873,1.874c-1.035,0-1.875-0.839-1.875-1.874
				s0.84-1.873,1.875-1.873C522.359,246.585,523.197,247.424,523.197,248.458z"/>
			<path style="fill:#F1F1F1;" d="M531.816,248.458c0,1.035-0.84,1.874-1.875,1.874c-1.033,0-1.873-0.839-1.873-1.874
				s0.84-1.873,1.873-1.873C530.977,246.585,531.816,247.424,531.816,248.458z"/>
			<path style="fill:#F1F1F1;" d="M540.434,248.458c0,1.035-0.838,1.874-1.873,1.874c-1.035,0-1.873-0.839-1.873-1.874
				s0.838-1.873,1.873-1.873C539.596,246.585,540.434,247.424,540.434,248.458z"/>
		</g>
		<rect x="519.449" y="254.146" style="fill:#F1F1F1;" width="237.498" height="14.319"/>
		<g>
			<rect x="523.183" y="255.953" style="fill:#00A595;" width="10.706" height="10.706"/>
			<path style="fill:#FFFFFF;" d="M530.241,262.526c0,1.524-1.235,2.76-2.761,2.76c-1.523,0-2.76-1.236-2.76-2.76
				c0-1.524,1.236-2.76,2.76-2.76C529.006,259.767,530.241,261.002,530.241,262.526z"/>
			<circle style="fill:#FFFFFF;" cx="530.592" cy="258.612" r="1.154"/>
		</g>
		<rect x="505.381" y="275.457" style="fill:#00A595;" width="265.619" height="16.861"/>
		<g>
			<rect x="512.194" y="278.535" style="fill:#FFFFFF;" width="10.706" height="10.705"/>
			<path style="fill:#00A595;" d="M519.253,285.109c0,1.524-1.235,2.76-2.761,2.76c-1.523,0-2.76-1.236-2.76-2.76
				c0-1.524,1.236-2.76,2.76-2.76C518.018,282.349,519.253,283.585,519.253,285.109z"/>
			<path style="fill:#00A595;" d="M520.758,281.195c0,0.637-0.516,1.154-1.154,1.154c-0.637,0-1.154-0.517-1.154-1.154
				c0-0.638,0.518-1.154,1.154-1.154C520.242,280.04,520.758,280.557,520.758,281.195z"/>
		</g>
		<path style="fill:#FFFFFF;" d="M751.947,289.035l-2.365-2.366c0.475-0.651,0.757-1.45,0.757-2.317
			c0-2.178-1.766-3.943-3.943-3.943c-2.179,0-3.942,1.766-3.942,3.943c0,2.178,1.764,3.943,3.942,3.943
			c0.827,0,1.593-0.255,2.227-0.689l2.377,2.377L751.947,289.035z M743.714,284.352c0-1.481,1.2-2.681,2.682-2.681
			c1.482,0,2.683,1.2,2.683,2.681c0,1.481-1.201,2.682-2.683,2.682C744.914,287.033,743.714,285.832,743.714,284.352z"/>
		<path style="fill:#C7C7C7;" d="M762.494,646.444c0,3.76-3.048,6.808-6.807,6.808h-66.711c-3.76,0-6.808-3.048-6.808-6.808V308.87
			c0-3.76,3.048-6.807,6.808-6.807h66.711c3.759,0,6.807,3.047,6.807,6.807V646.444z"/>
		<g>
			<path style="fill:#E3E3E3;" d="M594.356,415.659c0-3.76-3.048-6.808-6.808-6.808h-66.711c-3.759,0-6.807,3.048-6.807,6.808
				v38.885c0,3.76,3.048,6.808,6.807,6.808h66.711c3.76,0,6.808-3.048,6.808-6.808V415.659z"/>
			<rect x="516.457" y="465.383" style="fill:#C7C7C7;" width="75.475" height="3.212"/>
			<rect x="516.457" y="471.807" style="fill:#E3E3E3;" width="75.475" height="3.212"/>
			<rect x="516.457" y="478.23" style="fill:#E3E3E3;" width="75.475" height="3.211"/>
			<rect x="516.457" y="484.653" style="fill:#E3E3E3;" width="75.475" height="3.212"/>
		</g>
		<g>
			<path style="fill:#E3E3E3;" d="M678.426,415.659c0-3.76-3.048-6.808-6.808-6.808h-66.71c-3.76,0-6.808,3.048-6.808,6.808v38.885
				c0,3.76,3.048,6.808,6.808,6.808h66.71c3.76,0,6.808-3.048,6.808-6.808V415.659z"/>
			<rect x="600.525" y="465.383" style="fill:#C7C7C7;" width="75.475" height="3.212"/>
			<rect x="600.525" y="471.807" style="fill:#E3E3E3;" width="75.475" height="3.212"/>
			<rect x="600.525" y="478.23" style="fill:#E3E3E3;" width="75.475" height="3.211"/>
			<rect x="600.525" y="484.653" style="fill:#E3E3E3;" width="75.475" height="3.212"/>
		</g>
		<g>
			<path style="fill:#E3E3E3;" d="M594.356,498.361c0-3.76-3.048-6.808-6.808-6.808h-66.711c-3.759,0-6.807,3.048-6.807,6.808
				v38.884c0,3.76,3.048,6.808,6.807,6.808h66.711c3.76,0,6.808-3.048,6.808-6.808V498.361z"/>
			<rect x="516.457" y="548.085" style="fill:#C7C7C7;" width="75.475" height="3.212"/>
			<rect x="516.457" y="554.509" style="fill:#E3E3E3;" width="75.475" height="3.212"/>
			<rect x="516.457" y="560.932" style="fill:#E3E3E3;" width="75.475" height="3.212"/>
			<rect x="516.457" y="567.356" style="fill:#E3E3E3;" width="75.475" height="3.212"/>
		</g>
		<g>
			<path style="fill:#E3E3E3;" d="M678.426,498.361c0-3.76-3.048-6.808-6.808-6.808h-66.71c-3.76,0-6.808,3.048-6.808,6.808v38.884
				c0,3.76,3.048,6.808,6.808,6.808h66.71c3.76,0,6.808-3.048,6.808-6.808V498.361z"/>
			<rect x="600.525" y="548.085" style="fill:#C7C7C7;" width="75.475" height="3.212"/>
			<rect x="600.525" y="554.509" style="fill:#E3E3E3;" width="75.475" height="3.212"/>
			<rect x="600.525" y="560.932" style="fill:#E3E3E3;" width="75.475" height="3.212"/>
			<rect x="600.525" y="567.356" style="fill:#E3E3E3;" width="75.475" height="3.212"/>
		</g>
		<g>
			<path style="fill:#E3E3E3;" d="M594.356,581.063c0-3.76-3.048-6.808-6.808-6.808h-66.711c-3.759,0-6.807,3.048-6.807,6.808
				v38.884c0,3.76,3.048,6.808,6.807,6.808h66.711c3.76,0,6.808-3.048,6.808-6.808V581.063z"/>
			<rect x="516.457" y="630.787" style="fill:#C7C7C7;" width="75.475" height="3.212"/>
			<rect x="516.457" y="637.21" style="fill:#E3E3E3;" width="75.475" height="3.212"/>
			<rect x="516.457" y="643.634" style="fill:#E3E3E3;" width="75.475" height="3.212"/>
			<rect x="516.457" y="650.058" style="fill:#E3E3E3;" width="75.475" height="3.211"/>
		</g>
		<g>
			<path style="fill:#E3E3E3;" d="M678.426,581.063c0-3.76-3.048-6.808-6.808-6.808h-66.71c-3.76,0-6.808,3.048-6.808,6.808v38.884
				c0,3.76,3.048,6.808,6.808,6.808h66.71c3.76,0,6.808-3.048,6.808-6.808V581.063z"/>
			<rect x="600.525" y="630.787" style="fill:#C7C7C7;" width="75.475" height="3.212"/>
			<rect x="600.525" y="637.21" style="fill:#E3E3E3;" width="75.475" height="3.212"/>
			<rect x="600.525" y="643.634" style="fill:#E3E3E3;" width="75.475" height="3.212"/>
			<rect x="600.525" y="650.058" style="fill:#E3E3E3;" width="75.475" height="3.211"/>
		</g>
		<g>
			<path style="fill:#E3E3E3;" d="M678.133,397.536c0,4.434-3.595,8.029-8.029,8.029h-148.81c-4.435,0-8.029-3.595-8.029-8.029
				v-87.52c0-4.435,3.595-8.029,8.029-8.029h148.81c4.435,0,8.029,3.595,8.029,8.029V397.536z"/>
			<rect x="523.703" y="387.633" style="fill:#ACABAB;" width="103.043" height="8.832"/>
			<g>
				<polygon style="fill:#ACABAB;" points="525.241,349.9 524.57,349.229 520.695,353.105 520.693,353.104 520.023,353.775 
					520.024,353.776 520.023,353.777 520.693,354.448 520.695,354.447 524.57,358.322 525.241,357.651 521.365,353.776 				"/>
				<polygon style="fill:#ACABAB;" points="666.156,349.9 666.827,349.229 670.702,353.105 670.704,353.104 671.375,353.775 
					671.373,353.776 671.375,353.777 670.704,354.448 670.702,354.447 666.827,358.322 666.156,357.651 670.031,353.776 				"/>
			</g>
		</g>
		<rect x="689.909" y="310.848" style="fill:#E3E3E3;" width="2.007" height="333.618"/>
		<path style="fill:#00A595;" d="M695.129,345.647c0,2.328-1.889,4.215-4.217,4.215c-2.327,0-4.215-1.888-4.215-4.215
			c0-2.328,1.888-4.216,4.215-4.216C693.24,341.431,695.129,343.318,695.129,345.647z"/>
		<path style="fill:#E3E3E3;" d="M746.917,315.035h-34.593c-4.435,0-8.029,3.595-8.029,8.029v19.624l-5.123,2.959l5.123,2.958
			v19.624c0,4.435,3.595,8.029,8.029,8.029h34.593c4.435,0,8.029-3.595,8.029-8.029v-45.164
			C754.946,318.629,751.352,315.035,746.917,315.035z"/>
		<path style="fill:#E3E3E3;" d="M746.917,380.072h-34.593c-4.435,0-8.029,3.595-8.029,8.029v19.624l-5.123,2.958l5.123,2.958
			v19.624c0,4.436,3.595,8.029,8.029,8.029h34.593c4.435,0,8.029-3.594,8.029-8.029v-45.164
			C754.946,383.667,751.352,380.072,746.917,380.072z"/>
		<path style="fill:#E3E3E3;" d="M746.917,445.109h-34.593c-4.435,0-8.029,3.594-8.029,8.029v19.625l-5.123,2.957l5.123,2.958
			v19.625c0,4.435,3.595,8.029,8.029,8.029h34.593c4.435,0,8.029-3.595,8.029-8.029v-45.165
			C754.946,448.703,751.352,445.109,746.917,445.109z"/>
		<path style="fill:#E3E3E3;" d="M746.917,510.147h-34.593c-4.435,0-8.029,3.595-8.029,8.029v19.625l-5.123,2.957l5.123,2.958
			v19.625c0,4.435,3.595,8.029,8.029,8.029h34.593c4.435,0,8.029-3.595,8.029-8.029v-45.165
			C754.946,513.741,751.352,510.147,746.917,510.147z"/>
		<path style="fill:#E3E3E3;" d="M746.917,575.184h-34.593c-4.435,0-8.029,3.595-8.029,8.029v19.625l-5.123,2.958l5.123,2.957
			v19.625c0,4.435,3.595,8.029,8.029,8.029h34.593c4.435,0,8.029-3.595,8.029-8.029v-45.165
			C754.946,578.778,751.352,575.184,746.917,575.184z"/>
		
			<radialGradient id="SVGID_1_" cx="638.1992" cy="681.5" r="137.5007" gradientTransform="matrix(1 0 0 0.0509 0 646.8055)" gradientUnits="userSpaceOnUse">
			<stop  offset="0" style="stop-color:#C5C5C5"/>
			<stop  offset="1" style="stop-color:#ECECEC;stop-opacity:0"/>
		</radialGradient>
		<ellipse style="fill:url(#SVGID_1_);" cx="638.199" cy="681.5" rx="152.5" ry="9.5"/>
		<g>
			<g>
				<path style="fill:#747373;" d="M682.703,194.628v-1.446h2.891c1.711,0,3.099-1.386,3.099-3.097v-70.423
					c0-1.711-1.388-3.097-3.099-3.097h-94.791c-1.711,0-3.098,1.386-3.098,3.097v70.423c0,1.711,1.387,3.097,3.098,3.097h10.842
					v1.446h-21.406v2.111c0,1.457,1.182,2.638,2.638,2.638h110.646c1.457,0,2.639-1.181,2.639-2.638v-2.111H682.703z"/>
				<g>
					<rect x="592.662" y="122.119" style="fill:#E3E3E3;" width="91.073" height="65.51"/>
				</g>
				<rect x="625.188" y="196.59" style="fill:#E3E3E3;" width="26.022" height="0.826"/>
			</g>
			
				<radialGradient id="SVGID_00000012440528249887386970000016438558382796662676_" cx="638.1987" cy="208" r="65.1319" gradientTransform="matrix(1 0 0 0.0509 0 197.4109)" gradientUnits="userSpaceOnUse">
				<stop  offset="0" style="stop-color:#C5C5C5"/>
				<stop  offset="1" style="stop-color:#ECECEC;stop-opacity:0"/>
			</radialGradient>
			
				<ellipse style="fill:url(#SVGID_00000012440528249887386970000016438558382796662676_);" cx="638.199" cy="208" rx="72.237" ry="4.5"/>
		</g>
	</g>
	<g>
		<path style="fill:#C7C7C7;" d="M489.598,658.624c0,4.391-3.561,7.95-7.951,7.95H255.909c-4.39,0-7.949-3.56-7.949-7.95V247.252
			c0-4.39,3.559-7.949,7.949-7.949h225.737c4.391,0,7.951,3.559,7.951,7.949V658.624z"/>
		<path style="fill:#6B6868;" d="M489.598,658.624c0,4.391-3.561,7.95-7.951,7.95H255.909c-4.39,0-7.949-3.56-7.949-7.95V247.252
			c0-4.39,3.559-7.949,7.949-7.949h225.737c4.391,0,7.951,3.559,7.951,7.949V658.624z"/>
		<path style="fill:#FFFFFF;" d="M248.257,407.5v250.784c0,4.38,3.55,7.931,7.93,7.931h225.183c4.381,0,7.932-3.551,7.932-7.931
			V407.5H248.257z"/>
		<rect x="262.029" y="254.146" style="fill:#F1F1F1;" width="213.498" height="14.319"/>
		<g>
			<rect x="269.762" y="255.953" style="fill:#00A595;" width="10.706" height="10.706"/>
			<path style="fill:#FFFFFF;" d="M276.821,262.526c0,1.524-1.236,2.76-2.76,2.76c-1.524,0-2.76-1.236-2.76-2.76
				c0-1.524,1.236-2.76,2.76-2.76C275.585,259.767,276.821,261.002,276.821,262.526z"/>
			<circle style="fill:#FFFFFF;" cx="277.172" cy="258.612" r="1.154"/>
		</g>
		<rect x="247.96" y="275.457" style="fill:#00A595;" width="241.62" height="16.861"/>
		<g>
			<rect x="363.416" y="278.535" style="fill:#FFFFFF;" width="10.707" height="10.705"/>
			<path style="fill:#00A595;" d="M370.475,285.109c0,1.524-1.234,2.76-2.76,2.76c-1.523,0-2.76-1.236-2.76-2.76
				c0-1.524,1.236-2.76,2.76-2.76C369.24,282.349,370.475,283.585,370.475,285.109z"/>
			<path style="fill:#00A595;" d="M371.98,281.195c0,0.637-0.516,1.154-1.154,1.154c-0.637,0-1.154-0.517-1.154-1.154
				c0-0.638,0.518-1.154,1.154-1.154C371.465,280.04,371.98,280.557,371.98,281.195z"/>
		</g>
		<path style="fill:#FFFFFF;" d="M470.527,289.035l-2.365-2.366c0.475-0.651,0.756-1.45,0.756-2.317
			c0-2.178-1.766-3.943-3.943-3.943s-3.941,1.766-3.941,3.943c0,2.178,1.764,3.943,3.941,3.943c0.828,0,1.594-0.255,2.229-0.689
			l2.377,2.377L470.527,289.035z M462.293,284.352c0-1.481,1.201-2.681,2.682-2.681c1.482,0,2.684,1.2,2.684,2.681
			c0,1.481-1.201,2.682-2.684,2.682C463.494,287.033,462.293,285.832,462.293,284.352z"/>
		<g>
			<g>
				<path style="fill:#E3E3E3;" d="M484.01,509.719c0-3.483-2.824-6.307-6.309-6.307h-61.811c-3.484,0-6.309,2.823-6.309,6.307
					v36.03c0,3.483,2.824,6.308,6.309,6.308h61.811c3.484,0,6.309-2.824,6.309-6.308V509.719z"/>
				<rect x="411.828" y="555.791" style="fill:#C7C7C7;" width="69.934" height="2.978"/>
				<rect x="411.828" y="561.744" style="fill:#E3E3E3;" width="69.934" height="2.976"/>
				<rect x="411.828" y="567.695" style="fill:#E3E3E3;" width="69.934" height="2.976"/>
				<rect x="411.828" y="573.646" style="fill:#E3E3E3;" width="69.934" height="2.977"/>
			</g>
			<g>
				<path style="fill:#E3E3E3;" d="M484.01,586.349c0-3.484-2.824-6.308-6.309-6.308h-61.811c-3.484,0-6.309,2.823-6.309,6.308
					v36.029c0,3.483,2.824,6.308,6.309,6.308h61.811c3.484,0,6.309-2.824,6.309-6.308V586.349z"/>
				<rect x="411.828" y="632.421" style="fill:#C7C7C7;" width="69.934" height="2.976"/>
				<rect x="411.828" y="638.373" style="fill:#E3E3E3;" width="69.934" height="2.976"/>
				<rect x="411.828" y="644.325" style="fill:#E3E3E3;" width="69.934" height="2.976"/>
				<rect x="411.828" y="650.276" style="fill:#E3E3E3;" width="69.934" height="2.976"/>
			</g>
			<g>
				<path style="fill:#E3E3E3;" d="M327.973,509.719c0-3.483-2.823-6.307-6.307-6.307h-61.811c-3.484,0-6.308,2.823-6.308,6.307
					v36.028c0,3.484,2.824,6.309,6.308,6.309h61.811c3.483,0,6.307-2.824,6.307-6.309V509.719z"/>
				<rect x="255.794" y="555.791" style="fill:#C7C7C7;" width="69.933" height="2.978"/>
				<rect x="255.794" y="561.744" style="fill:#E3E3E3;" width="69.933" height="2.976"/>
				<rect x="255.794" y="567.695" style="fill:#E3E3E3;" width="69.933" height="2.976"/>
				<rect x="255.794" y="573.646" style="fill:#E3E3E3;" width="69.933" height="2.977"/>
			</g>
			<g>
				<path style="fill:#E3E3E3;" d="M405.869,509.719c0-3.483-2.824-6.307-6.307-6.307H337.75c-3.484,0-6.307,2.823-6.307,6.307
					v36.028c0,3.484,2.822,6.309,6.307,6.309h61.813c3.482,0,6.307-2.824,6.307-6.309V509.719z"/>
				<rect x="333.689" y="555.791" style="fill:#C7C7C7;" width="69.932" height="2.978"/>
				<rect x="333.689" y="561.744" style="fill:#E3E3E3;" width="69.932" height="2.976"/>
				<rect x="333.689" y="567.695" style="fill:#E3E3E3;" width="69.932" height="2.976"/>
				<rect x="333.689" y="573.646" style="fill:#E3E3E3;" width="69.932" height="2.977"/>
			</g>
			<g>
				<path style="fill:#E3E3E3;" d="M327.973,586.349c0-3.484-2.823-6.308-6.307-6.308h-61.811c-3.484,0-6.308,2.823-6.308,6.308
					v36.028c0,3.483,2.824,6.308,6.308,6.308h61.811c3.483,0,6.307-2.824,6.307-6.308V586.349z"/>
				<rect x="255.794" y="632.421" style="fill:#C7C7C7;" width="69.933" height="2.976"/>
				<rect x="255.794" y="638.372" style="fill:#E3E3E3;" width="69.933" height="2.976"/>
				<rect x="255.794" y="644.323" style="fill:#E3E3E3;" width="69.933" height="2.978"/>
				<rect x="255.794" y="650.276" style="fill:#E3E3E3;" width="69.933" height="2.976"/>
			</g>
			<g>
				<path style="fill:#E3E3E3;" d="M405.869,586.349c0-3.484-2.824-6.308-6.307-6.308H337.75c-3.484,0-6.307,2.823-6.307,6.308
					v36.028c0,3.483,2.822,6.308,6.307,6.308h61.813c3.482,0,6.307-2.824,6.307-6.308V586.349z"/>
				<rect x="333.689" y="632.421" style="fill:#C7C7C7;" width="69.932" height="2.976"/>
				<rect x="333.689" y="638.372" style="fill:#E3E3E3;" width="69.932" height="2.976"/>
				<rect x="333.689" y="644.323" style="fill:#E3E3E3;" width="69.932" height="2.978"/>
				<rect x="333.689" y="650.276" style="fill:#E3E3E3;" width="69.932" height="2.976"/>
			</g>
		</g>
		<g>
			<rect x="260.748" y="419.546" style="fill:#E3E3E3;" width="216.061" height="1.645"/>
			<path style="fill:#00A595;" d="M448.734,423.825c-1.908,0-3.453-1.548-3.453-3.455c0-1.909,1.545-3.456,3.453-3.456
				c1.908,0,3.455,1.547,3.455,3.456C452.189,422.277,450.643,423.825,448.734,423.825z"/>
			<path style="fill:#E3E3E3;" d="M473.824,486.073v-48.155c0-3.635-2.945-6.581-6.58-6.581H451.16l-2.426-4.197l-2.424,4.197
				h-16.084c-3.635,0-6.582,2.946-6.582,6.581v48.155c0,3.636,2.947,6.581,6.582,6.581h37.017
				C470.879,492.654,473.824,489.709,473.824,486.073z"/>
			<path style="fill:#E3E3E3;" d="M420.52,486.073v-48.155c0-3.635-2.943-6.581-6.58-6.581h-16.084l-2.424-4.197l-2.426,4.197
				h-16.082c-3.635,0-6.582,2.946-6.582,6.581v48.155c0,3.636,2.947,6.581,6.582,6.581h37.016
				C417.576,492.654,420.52,489.709,420.52,486.073z"/>
			<path style="fill:#E3E3E3;" d="M367.215,486.073v-48.155c0-3.635-2.945-6.581-6.58-6.581h-16.086l-2.422-4.197l-2.426,4.197
				h-16.084c-3.634,0-6.581,2.946-6.581,6.581v48.155c0,3.636,2.947,6.581,6.581,6.581h37.018
				C364.27,492.654,367.215,489.709,367.215,486.073z"/>
			<path style="fill:#E3E3E3;" d="M313.911,486.073v-48.155c0-3.635-2.947-6.581-6.581-6.581h-16.085l-2.423-4.197l-2.426,4.197
				h-16.084c-3.633,0-6.581,2.946-6.581,6.581v48.155c0,3.636,2.947,6.581,6.581,6.581h37.018
				C310.964,492.654,313.911,489.709,313.911,486.073z"/>
		</g>
		<rect x="248.496" y="292.753" style="fill:#E3E3E3;" width="240.582" height="114.251"/>
		<rect x="273.658" y="390.841" style="fill:#ACABAB;" width="117.377" height="8.832"/>
		<g>
			<polygon style="fill:#ACABAB;" points="269.996,346.003 269.326,345.332 265.45,349.208 265.449,349.207 264.778,349.878 
				264.779,349.879 264.778,349.88 265.449,350.551 265.45,350.55 269.326,354.425 269.996,353.754 266.121,349.879 			"/>
			<polygon style="fill:#ACABAB;" points="467.578,346.003 468.248,345.332 472.123,349.208 472.125,349.207 472.797,349.878 
				472.795,349.879 472.797,349.88 472.125,350.551 472.123,350.55 468.248,354.425 467.578,353.754 471.453,349.879 			"/>
		</g>
		<polygon style="fill:#FFFFFF;" points="265.202,283.388 261.452,283.388 261.452,279.638 260.452,279.638 260.452,283.388 
			256.702,283.388 256.702,284.388 260.452,284.388 260.452,288.138 261.452,288.138 261.452,284.388 265.202,284.388 		"/>
		<rect x="262.029" y="246.469" style="fill:#908F8F;" width="15.75" height="1.563"/>
		<rect x="355.904" y="246.469" style="fill:#908F8F;" width="25.75" height="1.563"/>
		<g>
			<rect x="468.613" y="246.248" style="fill:#908F8F;" width="3.379" height="2.003"/>
			<path style="fill:#908F8F;" d="M475.527,246.186h-0.855v-0.73h-6.924v3.588h6.924v-0.855h0.855V246.186z M474.172,248.543h-5.924
				v-2.586h5.924V248.543z"/>
		</g>
		
			<radialGradient id="SVGID_00000098936492688835856430000010075247512700536973_" cx="362.414" cy="681.5" r="137.5026" gradientTransform="matrix(0.9213 0 0 0.0509 34.887 646.8055)" gradientUnits="userSpaceOnUse">
			<stop  offset="0" style="stop-color:#C5C5C5"/>
			<stop  offset="1" style="stop-color:#ECECEC;stop-opacity:0"/>
		</radialGradient>
		
			<ellipse style="fill:url(#SVGID_00000098936492688835856430000010075247512700536973_);" cx="368.779" cy="681.5" rx="140.5" ry="9.5"/>
		<g>
			<g>
				<path style="fill:#747373;" d="M390.404,123.764c3.086,0,5.59,2.502,5.59,5.589v64.435c0,3.087-2.504,5.59-5.59,5.59h-43.252
					c-3.088,0-5.59-2.503-5.59-5.59v-64.435c0-3.086,2.502-5.589,5.59-5.589H390.404z"/>
				<rect x="348.918" y="131.56" style="fill:#E3E3E3;" width="39.721" height="60.021"/>
				<path style="fill:#E3E3E3;" d="M368.777,193.788c0.895,0,1.619,0.726,1.619,1.619c0,0.894-0.725,1.618-1.619,1.618
					c-0.892,0-1.617-0.725-1.617-1.618C367.16,194.513,367.885,193.788,368.777,193.788z"/>
			</g>
			
				<radialGradient id="SVGID_00000070834139634830825310000008761965473785901246_" cx="362.4133" cy="208" r="36.1848" gradientTransform="matrix(0.9213 0 0 0.0509 34.887 197.4109)" gradientUnits="userSpaceOnUse">
				<stop  offset="0" style="stop-color:#C5C5C5"/>
				<stop  offset="1" style="stop-color:#ECECEC;stop-opacity:0"/>
			</radialGradient>
			<path style="fill:url(#SVGID_00000070834139634830825310000008761965473785901246_);" d="M405.752,208
				c0,1.381-16.553,2.5-36.973,2.5s-36.975-1.119-36.975-2.5s16.555-2.5,36.975-2.5S405.752,206.619,405.752,208z"/>
		</g>
	</g>
	<g>
		<g>
			<g>
				<path style="fill:#747373;" d="M153.721,196.919c0,1.358-1.102,2.458-2.459,2.458h-21.633c-1.357,0-2.459-1.1-2.459-2.458
					v-42.529c0-1.358,1.102-2.458,2.459-2.458h21.633c1.357,0,2.459,1.101,2.459,2.458V196.919z"/>
				<path style="fill:#E3E3E3;" d="M142.227,195.69c0,0.985-0.797,1.782-1.781,1.782s-1.781-0.797-1.781-1.782
					c0-0.984,0.797-1.782,1.781-1.782S142.227,194.706,142.227,195.69z"/>
				<rect x="137.248" y="154.39" style="fill:#E3E3E3;" width="6.393" height="0.492"/>
				<rect x="129.465" y="156.644" style="fill:#E3E3E3;" width="21.961" height="35.564"/>
			</g>
			
				<radialGradient id="SVGID_00000176762903298427238350000011709495304768697750_" cx="-285.2462" cy="208" r="36.1847" gradientTransform="matrix(0.5607 0 0 0.0509 300.3829 197.4109)" gradientUnits="userSpaceOnUse">
				<stop  offset="0" style="stop-color:#C5C5C5"/>
				<stop  offset="1" style="stop-color:#ECECEC;stop-opacity:0"/>
			</radialGradient>
			
				<ellipse style="fill:url(#SVGID_00000176762903298427238350000011709495304768697750_);" cx="140.445" cy="208" rx="22.502" ry="2.5"/>
		</g>
		
			<radialGradient id="SVGID_00000071517619989986883170000001270921089820568990_" cx="-256.9217" cy="681.5" r="137.5008" gradientTransform="matrix(0.5607 0 0 0.0509 284.5023 646.8055)" gradientUnits="userSpaceOnUse">
			<stop  offset="0" style="stop-color:#C5C5C5"/>
			<stop  offset="1" style="stop-color:#ECECEC;stop-opacity:0"/>
		</radialGradient>
		<path style="fill:url(#SVGID_00000071517619989986883170000001270921089820568990_);" d="M225.953,681.5
			c0,5.247-38.283,9.5-85.508,9.5s-85.506-4.253-85.506-9.5s38.281-9.5,85.506-9.5S225.953,676.253,225.953,681.5z"/>
		<path style="fill:#C7C7C7;" d="M226.264,658.624c0,4.391-3.559,7.95-7.949,7.95H62.576c-4.391,0-7.949-3.56-7.949-7.95V247.252
			c0-4.39,3.559-7.949,7.949-7.949h155.738c4.391,0,7.949,3.559,7.949,7.949V658.624z"/>
		<path style="fill:#6B6868;" d="M226.264,658.624c0,4.391-3.559,7.95-7.949,7.95H62.576c-4.391,0-7.949-3.56-7.949-7.95V247.252
			c0-4.39,3.559-7.949,7.949-7.949h155.738c4.391,0,7.949,3.559,7.949,7.949V658.624z"/>
		<path style="fill:#FFFFFF;" d="M54.924,407.5v250.784c0,4.38,3.551,7.931,7.93,7.931h155.184c4.379,0,7.93-3.551,7.93-7.931V407.5
			H54.924z"/>
		<rect x="68.697" y="254.146" style="fill:#F1F1F1;" width="143.498" height="14.319"/>
		<g>
			<rect x="76.43" y="255.953" style="fill:#00A595;" width="10.705" height="10.706"/>
			<path style="fill:#FFFFFF;" d="M83.488,262.526c0,1.524-1.236,2.76-2.762,2.76c-1.523,0-2.76-1.236-2.76-2.76
				c0-1.524,1.236-2.76,2.76-2.76C82.252,259.767,83.488,261.002,83.488,262.526z"/>
			<circle style="fill:#FFFFFF;" cx="83.838" cy="258.612" r="1.154"/>
		</g>
		<rect x="54.627" y="275.457" style="fill:#00A595;" width="171.619" height="16.861"/>
		<g>
			<rect x="135.084" y="278.535" style="fill:#FFFFFF;" width="10.705" height="10.705"/>
			<path style="fill:#00A595;" d="M142.143,285.109c0,1.524-1.236,2.76-2.76,2.76c-1.525,0-2.76-1.236-2.76-2.76
				c0-1.524,1.234-2.76,2.76-2.76C140.906,282.349,142.143,283.585,142.143,285.109z"/>
			<path style="fill:#00A595;" d="M143.648,281.195c0,0.637-0.518,1.154-1.154,1.154c-0.637,0-1.154-0.517-1.154-1.154
				c0-0.638,0.518-1.154,1.154-1.154C143.131,280.04,143.648,280.557,143.648,281.195z"/>
		</g>
		<path style="fill:#FFFFFF;" d="M207.193,289.035l-2.365-2.366c0.475-0.651,0.758-1.45,0.758-2.317
			c0-2.178-1.766-3.943-3.943-3.943c-2.18,0-3.943,1.766-3.943,3.943c0,2.178,1.764,3.943,3.943,3.943
			c0.826,0,1.592-0.255,2.227-0.689l2.377,2.377L207.193,289.035z M198.961,284.352c0-1.481,1.199-2.681,2.682-2.681
			c1.48,0,2.682,1.2,2.682,2.681c0,1.481-1.201,2.682-2.682,2.682C200.16,287.033,198.961,285.832,198.961,284.352z"/>
		<g>
			<path style="fill:#E3E3E3;" d="M139.109,610.062c0-3.693-2.992-6.687-6.686-6.687H66.9c-3.693,0-6.688,2.993-6.688,6.687v38.192
				c0,3.692,2.994,6.687,6.688,6.687h65.523c3.693,0,6.686-2.994,6.686-6.687V610.062z"/>
			<g>
				<rect x="144.928" y="603.375" style="fill:#C7C7C7;" width="74.133" height="3.154"/>
				<rect x="144.928" y="609.684" style="fill:#E3E3E3;" width="74.133" height="3.154"/>
				<rect x="144.928" y="615.992" style="fill:#E3E3E3;" width="74.133" height="3.156"/>
				<rect x="144.928" y="622.303" style="fill:#E3E3E3;" width="74.133" height="3.154"/>
			</g>
		</g>
		<g>
			<path style="fill:#E3E3E3;" d="M139.109,553.394c0-3.693-2.992-6.686-6.686-6.686H66.9c-3.693,0-6.688,2.993-6.688,6.686v38.192
				c0,3.692,2.994,6.686,6.688,6.686h65.523c3.693,0,6.686-2.994,6.686-6.686V553.394z"/>
			<g>
				<rect x="144.928" y="546.708" style="fill:#C7C7C7;" width="74.133" height="3.154"/>
				<rect x="144.928" y="553.017" style="fill:#E3E3E3;" width="74.133" height="3.154"/>
				<rect x="144.928" y="559.325" style="fill:#E3E3E3;" width="74.133" height="3.156"/>
				<rect x="144.928" y="565.636" style="fill:#E3E3E3;" width="74.133" height="3.154"/>
			</g>
		</g>
		<rect x="55.162" y="292.753" style="fill:#E3E3E3;" width="170.584" height="114.251"/>
		<rect x="81.766" y="390.841" style="fill:#ACABAB;" width="117.377" height="8.832"/>
		<g>
			<polygon style="fill:#ACABAB;" points="76.662,346.003 75.992,345.332 72.115,349.208 72.115,349.207 71.443,349.878 
				71.445,349.879 71.443,349.88 72.115,350.551 72.115,350.55 75.992,354.425 76.662,353.754 72.787,349.879 			"/>
			<polygon style="fill:#ACABAB;" points="204.244,346.003 204.914,345.332 208.789,349.208 208.791,349.207 209.463,349.878 
				209.461,349.879 209.463,349.88 208.791,350.551 208.789,350.55 204.914,354.425 204.244,353.754 208.119,349.879 			"/>
		</g>
		<polygon style="fill:#FFFFFF;" points="71.869,283.388 68.119,283.388 68.119,279.638 67.119,279.638 67.119,283.388 
			63.369,283.388 63.369,284.388 67.119,284.388 67.119,288.138 68.119,288.138 68.119,284.388 71.869,284.388 		"/>
		<rect x="68.695" y="246.469" style="fill:#908F8F;" width="15.75" height="1.563"/>
		<rect x="127.57" y="246.469" style="fill:#908F8F;" width="25.75" height="1.563"/>
		<g>
			<rect x="205.279" y="246.248" style="fill:#908F8F;" width="3.379" height="2.003"/>
			<path style="fill:#908F8F;" d="M212.193,246.186h-0.855v-0.73h-6.924v3.588h6.924v-0.855h0.855V246.186z M210.838,248.543h-5.922
				v-2.586h5.922V248.543z"/>
		</g>
		<g>
			<rect x="65.225" y="412.648" style="fill:#E3E3E3;" width="2.129" height="127.998"/>
			<path style="fill:#00A595;" d="M69.426,434.57c0,1.732-1.404,3.138-3.139,3.138c-1.73,0-3.137-1.405-3.137-3.138
				c0-1.733,1.406-3.138,3.137-3.138C68.021,431.433,69.426,432.837,69.426,434.57z"/>
			<path style="fill:#E3E3E3;" d="M210.559,415.888H89c-4.703,0-8.516,3.814-8.516,8.518v7.027l-5.436,3.138l5.436,3.138v7.026
				c0,4.704,3.813,8.518,8.516,8.518h121.559c4.701,0,8.516-3.814,8.516-8.518v-20.329
				C219.074,419.702,215.26,415.888,210.559,415.888z"/>
			<path style="fill:#E3E3E3;" d="M210.559,457.965H89c-4.703,0-8.516,3.814-8.516,8.518v7.027l-5.436,3.138l5.436,3.138v7.026
				c0,4.704,3.813,8.518,8.516,8.518h121.559c4.701,0,8.516-3.814,8.516-8.518v-20.329
				C219.074,461.779,215.26,457.965,210.559,457.965z"/>
			<path style="fill:#E3E3E3;" d="M210.559,500.042H89c-4.703,0-8.516,3.814-8.516,8.518v7.027l-5.436,3.138l5.436,3.138v7.026
				c0,4.704,3.813,8.518,8.516,8.518h121.559c4.701,0,8.516-3.814,8.516-8.518V508.56
				C219.074,503.856,215.26,500.042,210.559,500.042z"/>
		</g>
	</g>
	<g>
		<g>
			<g>
				<path style="fill:#747373;" d="M310.905,778.282v-0.187c-0.248,0.289-0.494,0.519-0.734,0.695
					c-0.242,0.183-0.504,0.315-0.787,0.409c-0.283,0.091-0.592,0.14-0.926,0.14c-0.441,0-0.854-0.094-1.229-0.283
					c-0.379-0.184-0.705-0.453-0.978-0.804c-0.277-0.34-0.486-0.751-0.629-1.223c-0.143-0.47-0.213-0.979-0.213-1.524
					c0-1.158,0.283-2.059,0.846-2.705c0.566-0.646,1.309-0.967,2.229-0.967c0.537,0,0.984,0.093,1.35,0.273
					c0.369,0.185,0.725,0.466,1.072,0.839v-2.726c0-0.379,0.076-0.662,0.228-0.861c0.15-0.198,0.367-0.291,0.643-0.291
					c0.281,0,0.498,0.091,0.65,0.271c0.152,0.177,0.229,0.441,0.229,0.786v8.157c0,0.353-0.084,0.618-0.244,0.795
					c-0.166,0.173-0.373,0.263-0.635,0.263c-0.252,0-0.459-0.09-0.623-0.273C310.987,778.886,310.905,778.62,310.905,778.282z
					 M307.269,775.566c0,0.499,0.076,0.928,0.23,1.278c0.158,0.354,0.373,0.616,0.641,0.798c0.27,0.179,0.566,0.271,0.887,0.271
					c0.324,0,0.623-0.092,0.892-0.259c0.268-0.168,0.483-0.424,0.645-0.775c0.158-0.356,0.24-0.789,0.24-1.313
					c0-0.495-0.082-0.916-0.24-1.268c-0.162-0.357-0.377-0.631-0.65-0.817c-0.275-0.19-0.574-0.28-0.898-0.28
					c-0.34,0-0.642,0.097-0.908,0.284c-0.266,0.195-0.473,0.475-0.621,0.834C307.341,774.675,307.269,775.092,307.269,775.566z"/>
				<path style="fill:#747373;" d="M319.675,776.034h-3.617c0.004,0.42,0.088,0.79,0.252,1.109c0.166,0.324,0.383,0.565,0.66,0.724
					c0.271,0.167,0.572,0.243,0.902,0.243c0.223,0,0.424-0.021,0.607-0.073c0.182-0.051,0.355-0.139,0.531-0.245
					c0.172-0.107,0.33-0.229,0.477-0.358c0.143-0.124,0.328-0.297,0.559-0.512c0.096-0.079,0.23-0.126,0.408-0.126
					c0.191,0,0.34,0.052,0.461,0.154c0.115,0.104,0.176,0.257,0.176,0.442c0,0.171-0.066,0.364-0.197,0.589
					c-0.131,0.226-0.328,0.44-0.596,0.643c-0.26,0.204-0.592,0.374-0.994,0.517c-0.396,0.132-0.857,0.199-1.379,0.199
					c-1.189,0-2.109-0.342-2.773-1.016c-0.658-0.677-0.988-1.593-0.988-2.758c0-0.547,0.082-1.056,0.244-1.521
					c0.166-0.467,0.4-0.873,0.713-1.203c0.313-0.336,0.695-0.59,1.152-0.773c0.457-0.177,0.963-0.259,1.521-0.259
					c0.721,0,1.34,0.146,1.854,0.455c0.52,0.301,0.91,0.696,1.168,1.18c0.256,0.48,0.383,0.978,0.383,1.479
					c0,0.465-0.133,0.77-0.398,0.904C320.532,775.964,320.155,776.034,319.675,776.034z M316.058,774.985h3.352
					c-0.041-0.638-0.213-1.103-0.514-1.419c-0.293-0.314-0.685-0.473-1.166-0.473c-0.459,0-0.84,0.158-1.135,0.475
					C316.298,773.89,316.116,774.358,316.058,774.985z"/>
				<path style="fill:#747373;" d="M328.712,776.922c0,0.509-0.123,0.945-0.369,1.307c-0.25,0.369-0.617,0.644-1.104,0.828
					c-0.484,0.19-1.074,0.283-1.77,0.283c-0.662,0-1.234-0.1-1.711-0.305c-0.475-0.203-0.824-0.459-1.049-0.76
					c-0.225-0.307-0.338-0.615-0.338-0.922c0-0.203,0.07-0.375,0.217-0.52c0.145-0.146,0.324-0.218,0.551-0.218
					c0.193,0,0.34,0.047,0.443,0.144c0.105,0.088,0.207,0.227,0.301,0.397c0.189,0.329,0.416,0.572,0.68,0.736
					c0.264,0.161,0.629,0.245,1.082,0.245c0.371,0,0.672-0.084,0.912-0.245c0.236-0.167,0.354-0.356,0.354-0.561
					c0-0.331-0.123-0.572-0.367-0.717c-0.248-0.149-0.652-0.296-1.219-0.428c-0.635-0.158-1.154-0.32-1.553-0.495
					c-0.4-0.177-0.719-0.403-0.961-0.69c-0.236-0.286-0.357-0.636-0.357-1.05c0-0.367,0.107-0.722,0.332-1.054
					c0.219-0.327,0.547-0.587,0.977-0.785c0.435-0.199,0.953-0.294,1.563-0.294c0.477,0,0.908,0.047,1.293,0.148
					c0.383,0.096,0.699,0.231,0.955,0.401c0.256,0.165,0.449,0.352,0.582,0.554c0.133,0.202,0.199,0.399,0.199,0.595
					c0,0.212-0.07,0.391-0.211,0.518c-0.145,0.138-0.348,0.206-0.607,0.206c-0.191,0-0.352-0.05-0.486-0.161
					c-0.133-0.105-0.285-0.268-0.455-0.489c-0.143-0.179-0.309-0.325-0.496-0.434c-0.189-0.107-0.447-0.163-0.773-0.163
					c-0.336,0-0.611,0.076-0.832,0.218c-0.223,0.141-0.33,0.318-0.33,0.53c0,0.193,0.08,0.351,0.24,0.473
					c0.164,0.127,0.381,0.234,0.658,0.313c0.273,0.079,0.656,0.177,1.141,0.3c0.57,0.141,1.043,0.307,1.404,0.498
					c0.365,0.197,0.639,0.426,0.826,0.688C328.622,776.283,328.712,776.586,328.712,776.922z"/>
				<path style="fill:#747373;" d="M331.218,770.963c-0.262,0-0.48-0.086-0.66-0.237c-0.185-0.161-0.275-0.384-0.275-0.673
					c0-0.263,0.092-0.482,0.281-0.649c0.188-0.167,0.402-0.254,0.654-0.254c0.236,0,0.447,0.078,0.635,0.229
					c0.186,0.157,0.277,0.382,0.277,0.674c0,0.284-0.088,0.506-0.271,0.669C331.679,770.877,331.468,770.963,331.218,770.963z
					 M332.13,772.869v5.347c0,0.367-0.088,0.649-0.264,0.837c-0.176,0.193-0.398,0.287-0.672,0.287c-0.271,0-0.49-0.094-0.66-0.292
					c-0.168-0.193-0.252-0.472-0.252-0.832v-5.291c0-0.366,0.084-0.643,0.252-0.822c0.17-0.19,0.389-0.281,0.66-0.281
					c0.273,0,0.496,0.091,0.672,0.281C332.042,772.281,332.13,772.536,332.13,772.869z"/>
				<path style="fill:#747373;" d="M340.845,773.173v5.376c0,0.61-0.063,1.142-0.197,1.581c-0.127,0.448-0.34,0.806-0.629,1.101
					c-0.289,0.284-0.664,0.503-1.135,0.645c-0.469,0.136-1.051,0.206-1.744,0.206c-0.639,0-1.209-0.088-1.709-0.264
					c-0.5-0.181-0.885-0.415-1.162-0.695c-0.266-0.281-0.402-0.569-0.402-0.87c0-0.23,0.078-0.411,0.23-0.55
					c0.15-0.145,0.336-0.218,0.555-0.218c0.271,0,0.508,0.121,0.711,0.362c0.098,0.121,0.201,0.243,0.309,0.37
					c0.109,0.12,0.223,0.229,0.353,0.315c0.129,0.09,0.285,0.154,0.461,0.197c0.182,0.042,0.391,0.064,0.625,0.064
					c0.479,0,0.852-0.064,1.117-0.197c0.264-0.133,0.449-0.321,0.559-0.559c0.103-0.24,0.162-0.498,0.18-0.767
					c0.02-0.276,0.033-0.714,0.045-1.322c-0.285,0.394-0.615,0.703-0.99,0.906c-0.371,0.21-0.812,0.318-1.33,0.318
					c-0.617,0-1.158-0.164-1.621-0.479c-0.465-0.313-0.822-0.758-1.066-1.33c-0.252-0.569-0.375-1.225-0.375-1.975
					c0-0.549,0.076-1.05,0.227-1.5c0.152-0.445,0.365-0.824,0.648-1.13c0.279-0.31,0.603-0.537,0.971-0.699
					c0.365-0.149,0.766-0.228,1.203-0.228c0.523,0,0.979,0.097,1.365,0.302c0.381,0.198,0.738,0.514,1.068,0.94v-0.244
					c0-0.324,0.08-0.572,0.238-0.748c0.16-0.177,0.359-0.262,0.609-0.262c0.357,0,0.594,0.116,0.713,0.347
					C340.786,772.401,340.845,772.731,340.845,773.173z M335.485,775.524c0,0.745,0.164,1.313,0.49,1.694
					c0.328,0.38,0.75,0.577,1.272,0.577c0.309,0,0.6-0.083,0.869-0.252c0.273-0.166,0.498-0.411,0.67-0.742
					c0.174-0.333,0.26-0.736,0.26-1.206c0-0.758-0.17-1.344-0.5-1.762c-0.334-0.423-0.772-0.634-1.313-0.634
					c-0.529,0-0.955,0.201-1.27,0.609C335.644,774.208,335.485,774.777,335.485,775.524z"/>
				<path style="fill:#747373;" d="M344.397,772.843v0.224c0.326-0.43,0.68-0.745,1.066-0.943c0.389-0.203,0.83-0.302,1.332-0.302
					c0.488,0,0.926,0.106,1.309,0.314c0.383,0.215,0.67,0.514,0.861,0.903c0.121,0.225,0.201,0.472,0.234,0.728
					c0.037,0.268,0.057,0.598,0.057,1.006v3.442c0,0.367-0.086,0.649-0.254,0.837c-0.17,0.193-0.393,0.287-0.662,0.287
					c-0.277,0-0.498-0.094-0.672-0.292c-0.172-0.193-0.258-0.472-0.258-0.832v-3.08c0-0.61-0.084-1.08-0.254-1.404
					c-0.168-0.32-0.508-0.479-1.014-0.479c-0.328,0-0.631,0.094-0.9,0.294c-0.273,0.19-0.471,0.459-0.596,0.802
					c-0.09,0.284-0.137,0.798-0.137,1.547v2.321c0,0.374-0.086,0.657-0.26,0.841c-0.176,0.19-0.399,0.283-0.674,0.283
					c-0.267,0-0.486-0.094-0.658-0.292c-0.174-0.193-0.256-0.472-0.256-0.832v-5.347c0-0.353,0.076-0.616,0.23-0.787
					c0.154-0.176,0.363-0.261,0.629-0.261c0.162,0,0.311,0.037,0.439,0.109c0.129,0.084,0.238,0.199,0.315,0.351
					C344.358,772.435,344.397,772.623,344.397,772.843z"/>
				<path style="fill:#747373;" d="M356.261,776.034h-3.615c0.002,0.42,0.084,0.79,0.252,1.109c0.164,0.324,0.385,0.565,0.656,0.724
					c0.275,0.167,0.578,0.243,0.906,0.243c0.221,0,0.424-0.021,0.605-0.073c0.186-0.051,0.359-0.139,0.537-0.245
					c0.168-0.107,0.328-0.229,0.469-0.358c0.148-0.124,0.332-0.297,0.563-0.512c0.096-0.079,0.232-0.126,0.41-0.126
					c0.19,0,0.34,0.052,0.457,0.154c0.121,0.104,0.178,0.257,0.178,0.442c0,0.171-0.064,0.364-0.195,0.589
					c-0.131,0.226-0.33,0.44-0.596,0.643c-0.262,0.204-0.592,0.374-0.996,0.517c-0.397,0.132-0.859,0.199-1.377,0.199
					c-1.189,0-2.111-0.342-2.773-1.016c-0.656-0.677-0.988-1.593-0.988-2.758c0-0.547,0.082-1.056,0.244-1.521
					c0.16-0.467,0.402-0.873,0.713-1.203c0.313-0.336,0.693-0.59,1.15-0.773c0.455-0.177,0.963-0.259,1.52-0.259
					c0.719,0,1.344,0.146,1.857,0.455c0.518,0.301,0.906,0.696,1.168,1.18c0.254,0.48,0.381,0.978,0.381,1.479
					c0,0.465-0.135,0.77-0.4,0.904C357.122,775.964,356.749,776.034,356.261,776.034z M352.645,774.985h3.352
					c-0.045-0.638-0.215-1.103-0.512-1.419c-0.293-0.314-0.686-0.473-1.17-0.473c-0.459,0-0.836,0.158-1.135,0.475
					C352.89,773.89,352.708,774.358,352.645,774.985z"/>
				<path style="fill:#747373;" d="M364.417,778.282v-0.187c-0.252,0.289-0.494,0.519-0.736,0.695
					c-0.244,0.183-0.508,0.315-0.785,0.409c-0.283,0.091-0.592,0.14-0.926,0.14c-0.443,0-0.854-0.094-1.232-0.283
					c-0.377-0.184-0.701-0.453-0.979-0.804c-0.275-0.34-0.482-0.751-0.625-1.223c-0.145-0.47-0.215-0.979-0.215-1.524
					c0-1.158,0.283-2.059,0.846-2.705c0.568-0.646,1.315-0.967,2.233-0.967c0.533,0,0.982,0.093,1.346,0.273
					c0.367,0.185,0.725,0.466,1.074,0.839v-2.726c0-0.379,0.074-0.662,0.227-0.861c0.15-0.198,0.367-0.291,0.646-0.291
					c0.281,0,0.494,0.091,0.648,0.271c0.148,0.177,0.227,0.441,0.227,0.786v8.157c0,0.353-0.082,0.618-0.246,0.795
					c-0.16,0.173-0.375,0.263-0.629,0.263c-0.256,0-0.461-0.09-0.629-0.273C364.499,778.886,364.417,778.62,364.417,778.282z
					 M360.778,775.566c0,0.499,0.078,0.928,0.232,1.278c0.156,0.354,0.371,0.616,0.641,0.798c0.271,0.179,0.566,0.271,0.887,0.271
					c0.326,0,0.623-0.092,0.893-0.259c0.264-0.168,0.48-0.424,0.641-0.775c0.162-0.356,0.244-0.789,0.244-1.313
					c0-0.495-0.082-0.916-0.244-1.268c-0.16-0.357-0.377-0.631-0.65-0.817c-0.272-0.19-0.572-0.28-0.897-0.28
					c-0.34,0-0.641,0.097-0.91,0.284c-0.266,0.195-0.471,0.475-0.615,0.834C360.851,774.675,360.778,775.092,360.778,775.566z"/>
				<path style="fill:#747373;" d="M373.2,770.125v2.821c0.348-0.354,0.701-0.633,1.06-0.823c0.367-0.196,0.811-0.289,1.344-0.289
					c0.613,0,1.154,0.147,1.615,0.435c0.463,0.289,0.824,0.714,1.074,1.273c0.262,0.549,0.387,1.203,0.387,1.964
					c0,0.56-0.072,1.073-0.211,1.538c-0.145,0.467-0.352,0.877-0.623,1.216c-0.27,0.344-0.6,0.613-0.986,0.797
					c-0.387,0.19-0.811,0.283-1.275,0.283c-0.289,0-0.553-0.035-0.805-0.1c-0.248-0.065-0.463-0.16-0.643-0.272
					c-0.174-0.111-0.322-0.223-0.449-0.338c-0.121-0.12-0.287-0.298-0.488-0.534v0.187c0,0.348-0.086,0.612-0.254,0.795
					c-0.164,0.173-0.375,0.263-0.639,0.263c-0.256,0-0.469-0.09-0.625-0.263c-0.156-0.183-0.232-0.447-0.232-0.795v-8.078
					c0-0.372,0.074-0.655,0.227-0.847c0.152-0.196,0.361-0.289,0.631-0.289c0.287,0,0.508,0.091,0.662,0.277
					C373.12,769.526,373.2,769.79,373.2,770.125z M373.288,775.619c0,0.738,0.168,1.303,0.506,1.698
					c0.334,0.396,0.773,0.596,1.322,0.596c0.463,0,0.865-0.204,1.201-0.607c0.342-0.408,0.508-0.985,0.508-1.739
					c0-0.492-0.072-0.907-0.211-1.263c-0.141-0.35-0.342-0.624-0.598-0.819c-0.256-0.188-0.559-0.284-0.9-0.284
					c-0.352,0-0.664,0.097-0.941,0.284c-0.273,0.195-0.494,0.475-0.654,0.84C373.366,774.69,373.288,775.121,373.288,775.619z"/>
				<path style="fill:#747373;" d="M381.69,779.568l0.168-0.414l-2.277-5.729c-0.139-0.332-0.209-0.564-0.209-0.719
					c0-0.154,0.043-0.306,0.123-0.441c0.08-0.136,0.19-0.24,0.334-0.323c0.145-0.081,0.289-0.121,0.445-0.121
					c0.268,0,0.465,0.085,0.602,0.248c0.137,0.175,0.256,0.417,0.359,0.732l1.568,4.553l1.48-4.235
					c0.119-0.344,0.229-0.611,0.318-0.805c0.094-0.19,0.199-0.323,0.305-0.394c0.105-0.064,0.254-0.099,0.451-0.099
					c0.137,0,0.273,0.037,0.4,0.109c0.131,0.077,0.23,0.177,0.297,0.304c0.076,0.127,0.107,0.258,0.107,0.397
					c-0.018,0.084-0.049,0.202-0.086,0.364c-0.041,0.159-0.094,0.323-0.15,0.484l-2.414,6.31c-0.211,0.559-0.41,0.994-0.613,1.308
					c-0.193,0.32-0.457,0.557-0.785,0.731c-0.33,0.165-0.771,0.253-1.326,0.253c-0.541,0-0.947-0.059-1.217-0.173
					c-0.273-0.121-0.408-0.332-0.408-0.646c0-0.213,0.063-0.375,0.191-0.491c0.129-0.118,0.32-0.174,0.574-0.174
					c0.098,0,0.195,0.014,0.291,0.04c0.117,0.028,0.217,0.037,0.307,0.037c0.209,0,0.379-0.028,0.5-0.09
					c0.123-0.063,0.23-0.174,0.326-0.331C381.45,780.101,381.565,779.87,381.69,779.568z"/>
			</g>
			<g>
				<path style="fill:#747373;" d="M415.925,771.981h0.439v-0.554c0-0.578,0.072-1.04,0.227-1.376
					c0.141-0.345,0.391-0.59,0.742-0.746c0.35-0.16,0.826-0.236,1.443-0.236c1.074,0,1.617,0.265,1.617,0.794
					c0,0.171-0.061,0.316-0.174,0.442c-0.111,0.122-0.242,0.183-0.397,0.183c-0.076,0-0.201-0.014-0.377-0.045
					c-0.172-0.024-0.322-0.037-0.443-0.037c-0.338,0-0.551,0.098-0.647,0.292c-0.094,0.201-0.141,0.481-0.141,0.841v0.442h0.455
					c0.705,0,1.057,0.215,1.057,0.642c0,0.299-0.09,0.489-0.281,0.573c-0.188,0.079-0.443,0.123-0.775,0.123h-0.455v4.897
					c0,0.362-0.088,0.641-0.258,0.835c-0.178,0.195-0.4,0.289-0.678,0.289c-0.262,0-0.48-0.094-0.656-0.289
					c-0.172-0.194-0.26-0.473-0.26-0.835v-4.897h-0.51c-0.275,0-0.482-0.061-0.633-0.192c-0.152-0.12-0.225-0.281-0.225-0.483
					C414.997,772.201,415.308,771.981,415.925,771.981z"/>
				<path style="fill:#747373;" d="M422.534,776.665v1.551c0,0.374-0.088,0.657-0.262,0.841c-0.18,0.19-0.404,0.283-0.676,0.283
					c-0.262,0-0.484-0.094-0.652-0.287c-0.178-0.188-0.262-0.47-0.262-0.837v-5.149c0-0.832,0.297-1.245,0.9-1.245
					c0.305,0,0.529,0.095,0.662,0.29c0.139,0.191,0.213,0.482,0.227,0.858c0.223-0.376,0.449-0.667,0.682-0.858
					c0.232-0.195,0.541-0.29,0.932-0.29c0.387,0,0.764,0.095,1.131,0.29c0.367,0.191,0.547,0.451,0.547,0.768
					c0,0.233-0.074,0.412-0.23,0.566c-0.156,0.142-0.322,0.214-0.508,0.214c-0.066,0-0.228-0.039-0.488-0.117
					c-0.26-0.091-0.486-0.131-0.691-0.131c-0.268,0-0.49,0.069-0.662,0.216c-0.172,0.141-0.301,0.352-0.402,0.631
					c-0.094,0.279-0.16,0.616-0.197,1.002C422.548,775.644,422.534,776.115,422.534,776.665z"/>
				<path style="fill:#747373;" d="M431.593,776.034h-3.619c0.01,0.42,0.09,0.79,0.256,1.109c0.162,0.324,0.381,0.565,0.658,0.724
					c0.271,0.167,0.572,0.243,0.9,0.243c0.223,0,0.428-0.021,0.609-0.073c0.186-0.051,0.359-0.139,0.531-0.245
					c0.176-0.107,0.33-0.229,0.475-0.358c0.146-0.124,0.336-0.297,0.566-0.512c0.094-0.079,0.23-0.126,0.406-0.126
					c0.189,0,0.342,0.052,0.455,0.154c0.115,0.104,0.18,0.257,0.18,0.442c0,0.171-0.064,0.364-0.197,0.589
					c-0.135,0.226-0.332,0.44-0.588,0.643c-0.266,0.204-0.602,0.374-1.002,0.517c-0.4,0.132-0.861,0.199-1.377,0.199
					c-1.193,0-2.115-0.342-2.773-1.016c-0.66-0.677-0.988-1.593-0.988-2.758c0-0.547,0.08-1.056,0.246-1.521
					c0.158-0.467,0.396-0.873,0.709-1.203c0.311-0.336,0.695-0.59,1.154-0.773c0.451-0.177,0.959-0.259,1.52-0.259
					c0.721,0,1.334,0.146,1.853,0.455c0.52,0.301,0.908,0.696,1.166,1.18c0.256,0.48,0.389,0.978,0.389,1.479
					c0,0.465-0.133,0.77-0.404,0.904C432.448,775.964,432.081,776.034,431.593,776.034z M427.974,774.985h3.355
					c-0.049-0.638-0.211-1.103-0.506-1.419c-0.303-0.314-0.691-0.473-1.174-0.473c-0.463,0-0.838,0.158-1.139,0.475
					C428.218,773.89,428.04,774.358,427.974,774.985z"/>
				<path style="fill:#747373;" d="M439.841,776.034h-3.621c0.008,0.42,0.092,0.79,0.256,1.109c0.164,0.324,0.387,0.565,0.656,0.724
					c0.275,0.167,0.578,0.243,0.906,0.243c0.221,0,0.418-0.021,0.604-0.073c0.184-0.051,0.367-0.139,0.531-0.245
					c0.172-0.107,0.33-0.229,0.477-0.358c0.145-0.124,0.338-0.297,0.565-0.512c0.096-0.079,0.228-0.126,0.406-0.126
					c0.19,0,0.346,0.052,0.461,0.154c0.115,0.104,0.174,0.257,0.174,0.442c0,0.171-0.064,0.364-0.191,0.589
					c-0.133,0.226-0.332,0.44-0.598,0.643c-0.262,0.204-0.596,0.374-0.994,0.517c-0.4,0.132-0.861,0.199-1.379,0.199
					c-1.186,0-2.111-0.342-2.772-1.016c-0.66-0.677-0.988-1.593-0.988-2.758c0-0.547,0.082-1.056,0.24-1.521
					c0.164-0.467,0.4-0.873,0.713-1.203c0.313-0.336,0.695-0.59,1.154-0.773c0.457-0.177,0.961-0.259,1.516-0.259
					c0.721,0,1.344,0.146,1.863,0.455c0.514,0.301,0.902,0.696,1.162,1.18c0.258,0.48,0.383,0.978,0.383,1.479
					c0,0.465-0.131,0.77-0.398,0.904C440.698,775.964,440.327,776.034,439.841,776.034z M436.22,774.985h3.353
					c-0.045-0.638-0.215-1.103-0.51-1.419c-0.295-0.314-0.682-0.473-1.166-0.473c-0.463,0-0.838,0.158-1.137,0.475
					C436.47,773.89,436.282,774.358,436.22,774.985z"/>
				<path style="fill:#747373;" d="M444.448,772.861v0.214c0.354-0.426,0.713-0.741,1.086-0.94c0.375-0.205,0.799-0.302,1.275-0.302
					c0.566,0,1.09,0.147,1.57,0.438c0.479,0.295,0.855,0.725,1.137,1.287c0.275,0.56,0.414,1.231,0.414,2.008
					c0,0.566-0.082,1.088-0.242,1.566c-0.158,0.478-0.379,0.877-0.66,1.199c-0.279,0.323-0.607,0.573-0.988,0.747
					c-0.381,0.174-0.793,0.261-1.23,0.261c-0.531,0-0.975-0.108-1.332-0.318c-0.363-0.213-0.705-0.524-1.029-0.933v2.774
					c0,0.811-0.301,1.219-0.883,1.219c-0.354,0-0.582-0.105-0.697-0.313c-0.113-0.212-0.166-0.52-0.166-0.92v-7.981
					c0-0.353,0.076-0.616,0.229-0.787c0.152-0.176,0.363-0.261,0.635-0.261c0.26,0,0.471,0.085,0.635,0.267
					C444.368,772.266,444.448,772.523,444.448,772.861z M448.075,775.547c0-0.49-0.074-0.91-0.225-1.256
					c-0.15-0.354-0.355-0.624-0.617-0.81c-0.264-0.19-0.557-0.28-0.881-0.28c-0.506,0-0.937,0.201-1.291,0.609
					c-0.348,0.398-0.527,0.992-0.527,1.771c0,0.732,0.176,1.307,0.527,1.716c0.344,0.413,0.775,0.617,1.291,0.617
					c0.313,0,0.592-0.092,0.852-0.271c0.266-0.182,0.475-0.443,0.633-0.8C447.993,776.479,448.075,776.051,448.075,775.547z"/>
				<path style="fill:#747373;" d="M452.356,770.963c-0.264,0-0.486-0.086-0.666-0.237c-0.18-0.161-0.275-0.384-0.275-0.673
					c0-0.263,0.096-0.482,0.285-0.649c0.182-0.167,0.402-0.254,0.656-0.254c0.234,0,0.447,0.078,0.633,0.229
					c0.184,0.157,0.277,0.382,0.277,0.674c0,0.284-0.09,0.506-0.273,0.669C452.813,770.877,452.597,770.963,452.356,770.963z
					 M453.267,772.869v5.347c0,0.367-0.09,0.649-0.268,0.837c-0.174,0.193-0.393,0.287-0.67,0.287c-0.272,0-0.49-0.094-0.658-0.292
					c-0.168-0.193-0.256-0.472-0.256-0.832v-5.291c0-0.366,0.088-0.643,0.256-0.822c0.168-0.19,0.387-0.281,0.658-0.281
					c0.277,0,0.496,0.091,0.67,0.281C453.177,772.281,453.267,772.536,453.267,772.869z"/>
				<path style="fill:#747373;" d="M459.784,778.493l-1.635-2.685l-1.004,0.951v1.469c0,0.354-0.088,0.628-0.273,0.822
					c-0.193,0.195-0.412,0.289-0.648,0.289c-0.289,0-0.508-0.094-0.67-0.287c-0.17-0.188-0.246-0.47-0.246-0.837v-7.885
					c0-0.412,0.074-0.726,0.23-0.939c0.164-0.216,0.391-0.324,0.686-0.324c0.283,0,0.508,0.093,0.676,0.291
					c0.166,0.199,0.246,0.482,0.246,0.861v4.485l2.084-2.184c0.26-0.27,0.453-0.457,0.586-0.553
					c0.137-0.102,0.303-0.148,0.496-0.148c0.232,0,0.422,0.068,0.58,0.222c0.15,0.145,0.228,0.328,0.228,0.551
					c0,0.271-0.252,0.631-0.752,1.082l-0.986,0.9l1.898,2.982c0.145,0.223,0.244,0.39,0.305,0.504
					c0.057,0.112,0.09,0.227,0.09,0.326c0,0.296-0.078,0.525-0.238,0.699c-0.162,0.165-0.379,0.252-0.637,0.252
					c-0.227,0-0.396-0.063-0.523-0.185C460.157,779.035,459.993,778.812,459.784,778.493z"/>
				<path style="fill:#747373;" d="M464.358,779.34c-0.279,0-0.522-0.09-0.723-0.273c-0.205-0.179-0.313-0.432-0.313-0.757
					c0-0.275,0.102-0.514,0.297-0.711c0.195-0.198,0.44-0.3,0.719-0.3c0.283,0,0.527,0.102,0.728,0.296
					c0.201,0.197,0.303,0.433,0.303,0.715c0,0.32-0.102,0.576-0.303,0.757C464.866,779.25,464.632,779.34,464.358,779.34z"/>
				<path style="fill:#747373;" d="M474.112,777.049c0,0.229-0.068,0.475-0.209,0.736c-0.137,0.268-0.348,0.515-0.627,0.752
					c-0.283,0.236-0.643,0.429-1.068,0.569c-0.43,0.147-0.918,0.219-1.451,0.219c-1.142,0-2.035-0.333-2.676-1
					c-0.641-0.665-0.963-1.557-0.963-2.678c0-0.76,0.146-1.433,0.439-2.012c0.291-0.584,0.721-1.034,1.277-1.35
					c0.557-0.318,1.217-0.475,1.99-0.475c0.477,0,0.916,0.067,1.316,0.209c0.402,0.136,0.74,0.315,1.02,0.539
					c0.277,0.219,0.488,0.455,0.635,0.706c0.148,0.255,0.221,0.485,0.221,0.704c0,0.225-0.082,0.41-0.25,0.56
					c-0.164,0.154-0.363,0.229-0.598,0.229c-0.154,0-0.285-0.041-0.383-0.116c-0.105-0.079-0.215-0.206-0.342-0.385
					c-0.223-0.343-0.461-0.603-0.709-0.773c-0.246-0.169-0.561-0.255-0.938-0.255c-0.543,0-0.984,0.216-1.322,0.64
					c-0.332,0.429-0.502,1.01-0.502,1.75c0,0.35,0.043,0.669,0.133,0.96c0.08,0.289,0.209,0.537,0.369,0.749
					c0.16,0.199,0.361,0.36,0.588,0.464c0.23,0.106,0.488,0.158,0.762,0.158c0.367,0,0.688-0.089,0.953-0.254
					c0.262-0.181,0.496-0.435,0.699-0.79c0.115-0.207,0.236-0.37,0.365-0.482c0.133-0.123,0.291-0.179,0.48-0.179
					c0.23,0,0.412,0.08,0.565,0.254C474.034,776.676,474.112,776.856,474.112,777.049z"/>
				<path style="fill:#747373;" d="M482.647,775.58c0,0.546-0.078,1.056-0.254,1.52c-0.172,0.47-0.422,0.869-0.748,1.2
					c-0.324,0.335-0.709,0.595-1.164,0.777c-0.453,0.173-0.961,0.263-1.527,0.263c-0.553,0-1.061-0.09-1.508-0.273
					c-0.443-0.179-0.838-0.437-1.166-0.77c-0.32-0.343-0.576-0.738-0.742-1.197c-0.166-0.456-0.254-0.967-0.254-1.52
					c0-0.561,0.088-1.069,0.264-1.543c0.166-0.458,0.412-0.86,0.729-1.189c0.324-0.331,0.715-0.583,1.17-0.761
					c0.457-0.182,0.957-0.267,1.508-0.267c0.566,0,1.07,0.091,1.527,0.271c0.457,0.178,0.846,0.435,1.172,0.773
					c0.328,0.332,0.57,0.728,0.74,1.191C482.569,774.518,482.647,775.026,482.647,775.58z M480.794,775.58
					c0-0.755-0.17-1.341-0.5-1.763c-0.33-0.418-0.773-0.63-1.34-0.63c-0.357,0-0.676,0.091-0.955,0.278
					c-0.273,0.189-0.486,0.469-0.637,0.832c-0.148,0.366-0.223,0.794-0.223,1.282c0,0.483,0.074,0.905,0.223,1.265
					c0.145,0.363,0.357,0.634,0.629,0.829c0.273,0.193,0.596,0.283,0.963,0.283c0.566,0,1.01-0.203,1.34-0.624
					C480.624,776.906,480.794,776.32,480.794,775.58z"/>
				<path style="fill:#747373;" d="M490.261,775.712v2.462c0,0.39-0.088,0.681-0.262,0.874c-0.18,0.198-0.412,0.292-0.701,0.292
					c-0.279,0-0.506-0.094-0.682-0.292c-0.174-0.193-0.264-0.484-0.264-0.874v-2.945c0-0.47-0.014-0.823-0.043-1.087
					c-0.031-0.256-0.117-0.47-0.26-0.631c-0.139-0.168-0.359-0.246-0.664-0.246c-0.602,0-1.004,0.205-1.193,0.621
					c-0.191,0.416-0.289,1.013-0.289,1.786v2.502c0,0.385-0.086,0.673-0.262,0.87c-0.174,0.195-0.404,0.296-0.688,0.296
					c-0.277,0-0.506-0.1-0.69-0.296c-0.178-0.197-0.266-0.485-0.266-0.87v-5.295c0-0.343,0.076-0.609,0.238-0.787
					c0.164-0.18,0.375-0.271,0.633-0.271s0.469,0.085,0.633,0.248c0.176,0.175,0.258,0.411,0.258,0.705v0.172
					c0.32-0.38,0.664-0.661,1.031-0.841c0.363-0.179,0.773-0.272,1.217-0.272c0.469,0,0.867,0.093,1.199,0.277
					c0.338,0.185,0.611,0.466,0.828,0.835c0.311-0.373,0.648-0.654,1.006-0.839c0.353-0.181,0.75-0.273,1.184-0.273
					c0.506,0,0.943,0.097,1.309,0.296c0.367,0.204,0.637,0.486,0.818,0.854c0.162,0.336,0.238,0.86,0.238,1.58v3.61
					c0,0.39-0.092,0.681-0.268,0.874c-0.172,0.198-0.402,0.292-0.693,0.292c-0.277,0-0.512-0.1-0.686-0.296
					c-0.184-0.197-0.271-0.485-0.271-0.87v-3.112c0-0.393-0.014-0.714-0.051-0.955c-0.039-0.237-0.125-0.439-0.272-0.6
					c-0.152-0.164-0.377-0.242-0.68-0.242c-0.246,0-0.473,0.073-0.693,0.216c-0.217,0.14-0.394,0.337-0.516,0.586
					C490.327,774.373,490.261,774.924,490.261,775.712z"/>
			</g>
			<g>
				<path style="fill:#747373;" d="M401.344,767.051c-0.035-0.116-0.072-0.237-0.111-0.353c0.615-0.058,1.035-0.805,0.734-1.356
					c-0.279-0.621-1.236-0.697-1.605-0.128c-0.395,0.506-0.086,1.302,0.518,1.464c0.041,0.124,0.072,0.257,0.111,0.382
					c-0.93,0.066-1.879,0.272-2.664,0.802c0.082,0.22,0.162,0.456,0.242,0.681c1.58-0.691,3.342-0.543,5.006-0.376
					c0.059-0.219,0.113-0.439,0.168-0.659C402.988,767.171,402.164,767.046,401.344,767.051z"/>
				<path style="fill:#747373;" d="M410.724,769.595c-0.248,0.125-0.295,0.43-0.283,0.681c-0.277,0.268-0.145,0.679-0.174,1.013
					c-0.063,0.19-0.289,0.214-0.447,0.287c-0.219-0.337-0.449-0.654-0.747-0.927l0.006-0.016c-0.32-0.296-0.664-0.566-1.025-0.804
					c-0.289,0.31-0.596,0.62-0.875,0.941c0.553,0.61,1.066,1.273,1.52,1.958c0.314,0.525,0.563,1.085,0.784,1.656
					c0.467-0.243,0.932-0.494,1.4-0.738c-0.248-0.571-0.529-1.131-0.83-1.677c0.205-0.111,0.486-0.219,0.516-0.491
					c0.023-0.3-0.039-0.623,0.135-0.886c0.365,0.233,0.916-0.028,0.92-0.468C411.671,769.664,411.099,769.339,410.724,769.595z"/>
				<path style="fill:#747373;" d="M408.185,772.996c-0.609-1.014-1.27-2.023-2.17-2.8c-1.033-0.914-2.383-1.531-3.783-1.524
					c-1.766-0.016-3.557,0.264-5.184,0.973c-1.533,0.674-2.869,1.881-3.543,3.431c-0.652,1.393-0.641,3.003-0.348,4.488
					c1.625,0.405,3.279,0.767,4.953,0.843c1.658,0.052,3.318,0.091,4.965-0.136c2.258-0.302,4.473-1.012,6.446-2.168
					C409.522,776.102,409.247,774.617,408.185,772.996z M400.197,775c-0.307,0.442-0.748,0.786-1.252,0.979
					c-0.953,0.354-2.107,0.11-2.793-0.646c-0.477-0.525-0.76-1.23-0.709-1.947c0.039-0.891,0.59-1.723,1.373-2.139
					c0.594-0.32,1.313-0.378,1.967-0.195c0.271,0.066,0.52,0.195,0.754,0.35c0.484,0.34,0.842,0.843,1.006,1.414
					C400.766,773.546,400.621,774.365,400.197,775z M407.049,773.387c-0.113,0.766-0.842,1.407-1.621,1.358
					c-0.451,0.039-0.885-0.173-1.191-0.493c-0.221-0.273-0.4-0.585-0.432-0.948c-0.105-0.771,0.439-1.57,1.197-1.754
					c0.332-0.094,0.683-0.042,1.014,0.038C406.725,771.837,407.191,772.644,407.049,773.387z"/>
				<path style="fill:#747373;" d="M393.525,770.734c-0.66,0.397-1.203,0.961-1.656,1.579c-0.133-0.248-0.172-0.539-0.344-0.76
					c-0.098-0.129-0.275-0.075-0.41-0.075c-0.178,0.015-0.348-0.032-0.514-0.081c0.195-0.271,0.142-0.689-0.152-0.869
					c-0.316-0.224-0.807-0.029-0.893,0.349c-0.131,0.411,0.307,0.826,0.711,0.717c0.217,0.318,0.605,0.268,0.936,0.276
					c0.146,0.26,0.262,0.541,0.453,0.774c-0.355,0.698-0.557,1.481-0.574,2.263c0.457,0.191,0.914,0.385,1.367,0.576
					c0.022-0.498,0.082-0.988,0.154-1.47c0.152-1.067,0.766-1.986,1.494-2.745C393.918,771.078,393.715,770.913,393.525,770.734z"/>
				<path style="fill:#747373;" d="M404.156,778.732c-1.678,0.366-3.404,0.475-5.117,0.399c-1.158-0.055-2.318-0.166-3.447-0.417
					c-0.803-0.163-1.59-0.396-2.383-0.623c0.129,1.007,0.537,1.972,1.119,2.804c0.688,0.966,1.607,1.85,2.75,2.209
					c0.891,0.243,1.953,0.546,3.789,0.514c1.514-0.023,3.002-0.216,4.33-0.786c0.857-0.366,1.658-0.867,2.352-1.497
					c0.596-0.563,1.064-1.265,1.385-2.014c0.314-0.714,0.597-1.988,0.567-2.646C407.857,777.61,406.027,778.421,404.156,778.732z"/>
			</g>
		</g>
	</g>
</g>
</svg>
